<svg width="183" height="196" viewBox="0 0 183 196" fill="none" xmlns="http://www.w3.org/2000/svg">
<path d="M156.145 164.999C144.919 179.248 130.114 190.238 111.943 193.566C85.5773 196.486 60.575 191.744 39.5182 175.017C18.0529 157.304 4.73693 132.599 1.21553 104.939C0.894196 100.201 0.803095 95.4919 0.781753 90.7519C0.770588 89.4719 0.76952 88.2019 0.758006 86.8819C0.838805 65.1904 5.1006 41.3023 20.2371 24.7797C29.4653 16.5088 39.2001 14.7339 51.215 15.2391C55.6393 15.7105 59.7422 17.1748 63.9447 18.5882C72.4296 21.4042 79.3674 21.1237 87.4533 17.183C90.9336 14.9026 94.0907 12.265 97.2068 9.50768C105.228 2.76745 115.096 0.201286 125.47 0.530815C139.533 1.9682 151.375 10.2252 160.388 20.817C191.786 62.8947 187.507 123.814 156.145 164.999Z" fill="#3EA1DF"/>
<path d="M156.145 164.999C144.919 179.248 130.114 190.238 111.943 193.566C85.5773 196.486 60.575 191.744 39.5182 175.017C18.0529 157.304 4.73693 132.599 1.21553 104.939C0.894196 100.201 0.803095 95.4919 0.781753 90.7519C0.770588 89.4719 0.76952 88.2019 0.758006 86.8819C0.838805 65.1904 5.1006 41.3023 20.2371 24.7797C29.4653 16.5088 39.2001 14.7339 51.215 15.2391C55.6393 15.7105 59.7422 17.1748 63.9447 18.5882C72.4296 21.4042 79.3674 21.1237 87.4533 17.183C90.9336 14.9026 94.0907 12.265 97.2068 9.50768C105.228 2.76745 115.096 0.201286 125.47 0.530815C139.533 1.9682 151.375 10.2252 160.388 20.817C191.786 62.8947 187.507 123.814 156.145 164.999ZM144.16 23.3987C142.305 21.7748 140.432 20.221 138.469 18.7381C137.635 21.6955 137.427 24.2374 137.554 27.3064C138.054 43.4327 136.792 59.1843 125.984 72.149C117.106 80.4468 106.903 83.5159 94.9214 83.4204C79.8916 82.3615 68.4833 73.4407 58.847 62.4343C51.8587 53.4949 46.4938 43.7813 41.5946 33.5837C40.923 32.2495 40.2414 30.9254 39.5598 29.6013C33.004 31.2585 28.7627 34.5557 25.0109 40.1086C21.101 47.013 18.7529 54.1237 16.8398 61.8007C16.5494 62.8933 16.2589 63.9858 15.9587 65.1185C10.1191 90.4004 14.3082 118.945 27.534 141.33C28.5168 142.802 29.5295 144.253 30.572 145.684C31.0985 146.42 31.6249 147.155 32.1715 147.91C45.6378 165.773 63.0432 176.632 85.0796 180.7C103.861 183.036 119.901 179.556 135.2 167.962C154.677 151.462 165.396 122.627 167.979 97.7737C169.93 70.3057 164.803 43.1693 144.16 23.3987Z" fill="#000102"/>
<path d="M168.001 79.4788C169.342 109.318 160.398 141.067 140.074 163.556C126.763 176.102 111.722 181.874 93.5683 181.492C82.6132 180.947 71.7762 177.902 61.8166 173.409C61.7817 169.409 61.7817 169.409 63.0066 167.668C65.1529 166.089 66.2919 165.969 68.942 165.966C70.0118 165.947 70.0118 165.947 71.1117 165.927C73.5448 166.276 75.2399 166.851 77.4879 167.762C82.0433 169.502 86.1955 169.736 91.035 169.654C91.8648 169.636 92.6948 169.629 93.5547 169.612C104.971 169.182 113.33 164.459 121.675 156.886C122.28 156.361 122.896 155.835 123.521 155.29C138.113 141.752 142.56 119.512 146.147 100.83C148.932 86.5554 148.932 86.5554 155.019 81.5921C159.462 79.5733 163.171 79.4509 168.001 79.4788Z" fill="#62B6EB"/>
<path d="M118.721 61.8454C114.069 67.3662 108.925 70.4412 101.754 71.4938C91.6179 71.9622 84.4176 69.665 76.7299 63.0918C75.0761 61.5161 73.4322 59.9304 71.8081 58.3145C71.1223 57.6505 70.4265 56.9965 69.7105 56.3127C62.8394 49.3324 56.7556 39.7551 53.5645 30.4726C57.1182 30.8816 60.4226 31.3628 63.8518 32.4029C73.8643 34.9457 85.5097 34.3641 94.5542 29.115C97.4851 26.9093 100.245 24.5852 102.994 22.1611C107.927 17.9079 113.004 15.2635 119.422 13.8975C122.366 14.2518 122.366 14.2518 124.431 14.8538C127.835 30.2547 127.695 48.5267 118.721 61.8454Z" fill="#0D6CA9"/>
<path d="M118.326 116.913C116.668 121.748 114.026 124.941 109.608 127.49C105.513 129.246 101.83 130.048 97.4315 129.096C92.3319 126.881 88.4654 123.854 85.3447 119.201C83.7747 114.625 83.3229 109.839 84.9426 105.204C87.4903 100.342 90.7449 97.4233 95.5128 94.8616C100.041 93.5221 103.722 93.55 108.195 95.061C116.754 100.597 119.399 106.924 118.326 116.913Z" fill="#010304"/>
<path d="M106.265 110.018C105.921 112.952 105.439 113.886 103.318 116.044C98.7531 115.524 98.7531 115.524 97.3006 114.097C97.0894 111.659 97.0894 111.659 97.257 109.097C97.9112 108.431 98.5655 107.765 99.2395 107.08C102.542 107.381 103.865 107.659 106.265 110.018Z" fill="#3A96D1"/>
</svg>
