<svg width="222" height="216" viewBox="0 0 222 216" fill="none" xmlns="http://www.w3.org/2000/svg">
<path d="M10.8202 68.1809C12.3007 64.5993 14.0657 61.3637 16.151 58.102C16.5948 57.3942 17.0404 56.6963 17.5005 55.9653C30.3289 38.0758 54.353 33.464 74.1695 27.5633C92.2891 22.175 92.2891 22.175 110.057 15.7723C114.221 14.1648 118.409 12.9188 122.746 11.89C123.727 11.6358 123.727 11.6358 124.727 11.3782C141.078 7.76397 157.717 10.6789 171.81 19.4854C192.017 34.8602 200.195 60.1644 203.696 84.3947C206.65 108.346 201.814 131.944 189.17 152.492C188.701 153.346 188.231 154.191 187.736 155.07C177.419 173.207 158.202 190.974 138 196.993C123.73 200.139 111.19 197.263 98.6708 189.956C86.1832 181.963 77.0256 171.433 67.8183 159.988C56.2855 145.663 43.8345 132.465 30.8215 119.477C29.9834 118.64 29.1534 117.791 28.2904 116.928C26.7103 115.338 25.1239 113.77 23.5293 112.213C11.7738 100.425 5.35407 84.6909 10.8202 68.1809Z" fill="#DF5E3E"/>
<path d="M10.8202 68.1809C12.3007 64.5993 14.0657 61.3637 16.151 58.102C16.5948 57.3942 17.0404 56.6963 17.5005 55.9653C30.3289 38.0758 54.353 33.464 74.1695 27.5633C92.2891 22.175 92.2891 22.175 110.057 15.7723C114.221 14.1648 118.409 12.9188 122.746 11.89C123.727 11.6358 123.727 11.6358 124.727 11.3782C141.078 7.76397 157.717 10.6789 171.81 19.4854C192.017 34.8602 200.195 60.1644 203.696 84.3947C206.65 108.346 201.814 131.944 189.17 152.492C188.701 153.346 188.231 154.191 187.736 155.07C177.419 173.207 158.202 190.974 138 196.993C123.73 200.139 111.19 197.263 98.6708 189.956C86.1832 181.963 77.0256 171.433 67.8183 159.988C56.2855 145.663 43.8345 132.465 30.8215 119.477C29.9834 118.64 29.1534 117.791 28.2904 116.928C26.7103 115.338 25.1239 113.77 23.5293 112.213C11.7738 100.425 5.35407 84.6909 10.8202 68.1809ZM26.2869 69.5154C33.9928 71.9848 33.9928 71.9848 41.9273 71.8347C42.9022 71.6628 43.8772 71.4909 44.8817 71.3137C47.5918 74.0142 49.7364 77.0783 51.9147 80.2178C66.4542 100.999 81.6308 117.677 102.914 131.552C115.567 139.851 127.61 150.735 131.09 166.094C131.704 169.174 131.682 170.376 130.229 173.191C127.87 175.821 125.602 177.124 122.462 178.724C121.457 179.246 120.451 179.759 119.419 180.296C118.653 180.675 117.887 181.054 117.103 181.446C124.324 185.483 128.643 185.331 136.738 183.325C153.853 177.941 170.285 159.355 178.897 144.271C184.18 133.865 188.164 123.232 190.103 111.71C190.427 110.15 190.427 110.15 190.754 108.549C192.196 99.1052 190.782 90.2257 189.179 80.9025C188.965 79.6303 188.749 78.3483 188.528 77.0368C185.492 60.6855 179.511 43.2899 166.015 32.6923C165.397 32.1819 164.768 31.6633 164.127 31.1367C156.192 25.0114 146.425 22.6008 136.474 23.4619C133.715 23.8265 130.99 24.2664 128.252 24.7491C127.25 24.9361 126.245 25.1132 125.221 25.2938C118.248 26.6351 112.059 28.6808 105.577 31.5398C98.6293 34.5216 91.5062 36.5087 84.2185 38.4842C50.8721 46.0294 50.8721 46.0294 25.9396 67.5458C26.0542 68.1957 26.1688 68.8457 26.2869 69.5154Z" fill="#020000"/>
<path d="M23.7455 72.7836C24.4902 70.8448 24.4902 70.8448 26.1125 68.5279C27.26 68.8739 27.26 68.8739 28.4307 69.2361C35.018 71.2935 35.018 71.2935 41.7754 70.9753C44.7073 70.3263 44.7073 70.3263 46.4288 71.221C48.5307 73.064 49.8953 74.9862 51.4428 77.3128C52.0515 78.2311 52.6683 79.1377 53.3002 80.0722C53.9471 81.0345 54.5958 82.0066 55.2595 83.0066C67.4741 100.968 80.9398 115.948 99.0894 128.121C109.67 135.262 119.067 141.678 126.201 152.422C126.71 153.175 127.218 153.929 127.75 154.698C130.699 159.56 132.492 164.889 132.455 170.613C130.018 176.028 126.105 178.079 121.042 180.749C121.255 182.823 121.255 182.823 122.721 184.514C109.107 183.726 97.4002 173.768 88.6619 164.119C85.2059 160.067 81.8738 155.913 78.5256 151.781C68.1581 138.997 56.9379 127.136 45.5288 115.297C45.0208 114.777 44.521 114.246 43.9997 113.708C41.2902 110.896 38.5824 108.094 35.8666 105.303C34.7377 104.141 33.6187 102.978 32.4898 101.816C31.9685 101.279 31.4472 100.741 30.9045 100.197C23.1114 92.1073 20.6043 83.705 23.7455 72.7836Z" fill="#B04226"/>
<path d="M39.3225 57.0625C39.7864 53.9345 39.7864 53.9345 41.7961 52.4327C46.1202 50.1775 50.6806 48.7438 55.2925 47.1995C56.3758 46.8359 57.4672 46.4607 58.5899 46.0901C68.2858 42.8573 78.0935 40.143 87.9591 37.4692C94.7758 35.5869 101.232 33.4433 107.706 30.5959C121.961 24.4267 139.964 20.2775 154.972 25.8662C157.23 26.9202 159.286 28.1011 161.382 29.4477C162.113 29.9077 162.845 30.3776 163.59 30.8556C167.34 33.3523 170.678 35.8101 173.314 39.5289C173.485 40.5038 173.657 41.4788 173.834 42.4833C168.683 42.8128 164.315 41.0749 159.525 39.4215C157.904 38.8646 156.284 38.3175 154.655 37.7722C153.585 37.4025 153.585 37.4025 152.502 37.0246C139.296 33.3623 124.638 41.1053 113.014 46.4754C100.857 52.051 88.6269 54.6746 75.5145 57.0172C72.8474 57.4976 70.1838 57.9977 67.5202 58.4979C65.7985 58.8116 64.0849 59.1137 62.3632 59.4275C61.5771 59.5762 60.791 59.725 59.987 59.8871C52.9601 61.0957 45.5313 61.0043 39.3225 57.0625Z" fill="#FC9075"/>
<path d="M36.1921 73.8614C37.8144 71.5445 37.8144 71.5445 41.1483 70.6418C44.708 70.3289 44.708 70.3289 46.4626 71.2381C48.5431 73.0747 49.9094 75.0068 51.4436 77.3155C52.0505 78.2239 52.6674 79.1305 53.301 80.0748C53.9479 81.0371 54.5867 82.011 55.2585 82.9993C67.4749 100.971 80.9406 115.95 99.0902 128.124C109.671 135.265 119.068 141.68 126.202 152.425C126.71 153.178 127.219 153.931 127.741 154.702C130.713 159.58 132.369 164.883 132.456 170.615C131.315 173.477 131.315 173.477 129.211 175.249C126.235 176.221 124.387 176.8 121.497 175.442C119.168 173.232 118.774 171.109 117.908 168.042C113.624 154.744 104.306 148.203 93.1902 140.618C82.5885 133.359 72.5777 126.34 64.0497 116.674C63.5945 116.166 63.1508 115.665 62.6822 115.139C55.8506 107.377 49.7288 99.0332 43.6104 90.7092C42.5215 89.2562 42.5215 89.2562 41.406 87.7673C40.4 86.3809 40.4 86.3809 39.3789 84.9667C38.7777 84.1487 38.1748 83.3208 37.5586 82.4749C35.9579 79.386 35.8741 77.2988 36.1921 73.8614Z" fill="#030100"/>
<path d="M88.7897 83.4993C90.7634 79.3739 93.3034 76.0422 97.0228 73.2946C103.046 71.6943 108.448 70.5388 114.285 73.297C120.022 77.6673 122.28 81.4324 123.38 88.4784C123.537 92.1366 122.433 94.4536 120.596 97.5699C120.114 98.4063 119.632 99.2427 119.134 100.102C115.725 104.095 111.269 105.886 106.105 106.664C100.675 106.505 95.8542 103.639 91.5876 100.461C88.7383 95.1858 87.9113 89.4015 88.7897 83.4993Z" fill="#040101"/>
<path d="M102.46 92.6394C101.841 89.824 101.841 89.824 101.418 86.7306C101.953 85.966 102.488 85.2014 103.04 84.4136C107.628 84.1733 107.628 84.1733 109.296 85.3414C109.907 87.7113 109.907 87.7113 110.164 90.2654C109.629 91.03 109.094 91.7946 108.542 92.5823C105.403 92.7499 105.403 92.7499 102.46 92.6394Z" fill="#D4593B"/>
</svg>
