<svg width="192" height="173" viewBox="0 0 192 173" fill="none" xmlns="http://www.w3.org/2000/svg">
<path d="M84.3091 0.904681C86.129 0.889057 86.129 0.889057 87.9889 0.87309C100.319 0.867237 112.557 1.65221 124.836 2.68684C128.499 2.9954 132.171 3.27389 135.844 3.55237C168.027 6.09618 168.027 6.09618 179.905 18.6147C192.508 34.087 190.631 60.0341 188.903 78.9396C186.828 93.518 178.51 106.62 171.318 119.192C169.762 121.996 168.366 124.818 167.021 127.729C164.565 132.871 161.321 137.109 157.709 141.49C157.194 142.164 156.67 142.839 156.146 143.533C143.452 159.423 123.539 168.444 103.836 171.703C80.6698 173.402 60.0774 168.559 39.8418 157.502C38.8372 156.971 37.8326 156.439 36.7978 155.888C20.9589 146.764 8.88644 131.387 3.60597 113.882C1.65934 106.128 0.786612 98.8253 0.768018 90.8352C0.75806 89.6752 0.758012 88.5052 0.757624 87.2951C1.06196 62.1716 10.4287 37.2903 27.4692 18.6333C42.8845 4.05041 63.9896 1.04912 84.3091 0.904681Z" fill="#FDB426"/>
<path d="M84.3091 0.904681C86.129 0.889057 86.129 0.889057 87.9889 0.87309C100.319 0.867237 112.557 1.65221 124.836 2.68684C128.499 2.9954 132.171 3.27389 135.844 3.55237C168.027 6.09618 168.027 6.09618 179.905 18.6147C192.508 34.087 190.631 60.0341 188.903 78.9396C186.828 93.518 178.51 106.62 171.318 119.192C169.762 121.996 168.366 124.818 167.021 127.729C164.565 132.871 161.321 137.109 157.709 141.49C157.194 142.164 156.67 142.839 156.146 143.533C143.452 159.423 123.539 168.444 103.836 171.703C80.6698 173.402 60.0774 168.559 39.8418 157.502C38.8372 156.971 37.8326 156.439 36.7978 155.888C20.9589 146.764 8.88644 131.387 3.60597 113.882C1.65934 106.128 0.786612 98.8253 0.768018 90.8352C0.75806 89.6752 0.758012 88.5052 0.757624 87.2951C1.06196 62.1716 10.4287 37.2903 27.4692 18.6333C42.8845 4.05041 63.9896 1.04912 84.3091 0.904681ZM34.1255 30.9866C18.3855 50.8625 12.2191 75.7663 14.3534 100.719C17.4907 117.873 26.3724 132.007 40.4008 142.247C62.3411 156.159 85.5407 161.84 111.336 156.488C121.155 154.064 129.922 148.999 137.718 142.661C138.493 142.045 139.267 141.418 140.062 140.771C149.652 132.609 154.825 122.384 160.379 111.286C162.847 106.384 165.387 101.642 168.257 96.9675C172.889 89.0875 174.804 80.3107 176.107 71.3292C173.099 72.7451 170.703 74.4157 168.151 76.5277C164.646 79.3579 161.047 81.8989 157.278 84.3713C148.767 90.1246 142.032 96.4827 135.892 104.676C127.418 115.939 118.147 122.809 105.599 128.937C104.882 129.293 104.165 129.649 103.428 130.015C101.515 130.862 99.6404 131.458 97.625 132.005C96.6174 132.294 95.6099 132.583 94.5823 132.871C85.351 135.081 76.324 135.478 66.8446 135.59C64.9648 135.616 64.9648 135.616 63.0649 135.632C54.0346 135.64 54.0346 135.64 50.6353 133.409C50.2953 129.911 50.2953 129.911 50.5752 126.409C52.558 124.392 52.558 124.392 55.3359 124.138C57.1058 124.123 57.1059 124.123 58.8958 124.107C60.1956 124.076 61.4954 124.055 62.8353 124.034C63.5252 124.018 64.2152 124.012 64.925 123.996C86.6124 123.589 104.652 119.944 120.949 104.404C124.625 100.422 127.778 96.095 130.99 91.7273C137.753 82.6789 146.564 76.883 155.881 70.6928C163.198 65.7298 170.916 59.5433 173.52 50.7207C174.67 43.6705 175.374 36.0542 171.56 29.7467C165.786 22.356 158.18 19.3612 149.028 17.9897C144.985 17.6044 140.942 17.2991 136.89 17.0439C135.409 16.9366 133.938 16.8292 132.467 16.7218C129.535 16.517 126.603 16.3122 123.671 16.1073C120.189 15.8672 116.706 15.5671 113.233 15.2469C103.285 14.3223 93.4105 13.847 83.4204 13.8728C82.4204 13.8814 81.4103 13.88 80.3803 13.8789C63.4715 14.094 46.1166 18.2532 34.1255 30.9866Z" fill="#020100"/>
<path d="M174.105 71.3513C174.765 71.3456 175.425 71.3399 176.105 71.3341C173.837 84.434 169.869 95.2285 162.986 106.518C160.491 110.63 158.257 114.799 156.134 119.107C146.855 137.868 131.885 149.627 112.062 156.347C89.0111 162.165 65.8977 157.213 45.7361 145.456C29.1158 135.008 29.1158 135.008 26.5822 127.62C33.8533 128.877 41.1244 130.135 48.6158 131.431C48.9344 130.108 49.2531 128.785 49.5814 127.422C49.8811 128.55 50.1808 129.687 50.4909 130.855C50.8709 132.021 51.251 133.198 51.6414 134.405C62.7083 139.82 86.1334 135.649 97.6225 132.01C114.082 126.039 126.838 117.399 137.257 103.229C144.671 93.2247 153.563 86.3782 163.935 79.5989C167.744 77.0961 170.953 74.6784 174.105 71.3513Z" fill="#C68C1B"/>
<path d="M82.9199 13.8194C83.9798 13.8103 85.0399 13.8112 86.1298 13.8019C97.4706 13.8445 108.7 14.9182 119.99 16.0313C124.914 16.509 129.838 16.9068 134.781 17.1944C135.901 17.2547 137.012 17.3252 138.172 17.3852C140.234 17.5076 142.295 17.6099 144.365 17.6921C153.63 18.2326 162.14 20.4896 169.283 26.6285C174.77 33.2216 174.649 40.1629 173.91 48.3496C171.196 59.6233 162.324 66.4197 153.116 72.529C152.5 72.9743 151.894 73.4195 151.258 73.875C148.634 75.7676 147.471 76.5776 144.151 76.6061C143.386 72.5025 143.549 70.521 145.707 66.8524C148.395 63.0992 151.194 59.475 154.194 55.9591C155.983 53.4537 156.482 52.1993 156.666 49.1877C156.736 47.967 156.805 46.7564 156.885 45.4956C148.028 40.1015 138.625 38.5921 128.56 36.9285C127.278 36.7095 127.278 36.7095 125.966 36.4907C107.188 33.3318 88.7111 32.5804 69.7933 35.2429C66.8953 35.4878 64.0063 35.6126 61.1069 35.6975C60.3772 35.7338 59.6375 35.7801 58.8879 35.8266C54.8387 35.9313 53.0355 35.5768 49.784 33.0846C47.7512 30.432 47.7512 30.432 47.2254 27.4364C47.7848 23.8614 48.2502 22.1574 50.6566 19.4066C60.2144 14.4444 72.3597 13.8501 82.9199 13.8194Z" fill="#FCC660"/>
<path d="M101.571 53.1608C106.242 55.6207 109.087 58.5464 112.035 62.8813C112.751 68.2653 113.06 73.9629 110.542 78.8947C107.318 83.0425 103.595 86.3046 98.2412 87.0006C92.3961 87.6008 88.7973 86.5916 84.2073 83.1209C79.5649 78.2006 77.6406 74.207 77.7529 67.4858C78.3904 62.5301 80.842 59.2189 84.4729 55.8076C90.3285 51.7772 94.5213 50.9212 101.571 53.1608Z" fill="#050400"/>
<path d="M93.0475 65.0469C96.3502 65.3485 97.6727 65.6272 100.073 67.9867C99.7155 70.6098 99.7155 70.6098 99.116 72.9951C96.2414 73.6398 96.2414 73.6398 93.1248 74.0465C91.1077 72.0638 91.1077 72.0638 90.8362 69.566C91.0648 67.064 91.0648 67.064 93.0475 65.0469Z" fill="#ECA724"/>
</svg>
