<svg xmlns="http://www.w3.org/2000/svg" width="16" height="16" viewBox="0 0 16 16" fill="none"><metadata><rdf:RDF xmlns:rdf="http://www.w3.org/1999/02/22-rdf-syntax-ns#" xmlns:dc="http://purl.org/dc/elements/1.1/"><rdf:Description><dc:creator>RealFaviconGenerator</dc:creator><dc:source>https://realfavicongenerator.net</dc:source></rdf:Description></rdf:RDF></metadata><path d="M15.5451 9.47956C15.5234 10.8974 15.1248 12.2825 14.1536 13.3513C12.6539 14.7834 10.8754 15.6748 8.7736 15.6343C6.5996 15.5519 4.60032 14.6485 3.06942 13.0969C2.82474 12.8178 2.59568 12.5295 2.36951 12.2359C2.3081 12.1569 2.24779 12.0781 2.18446 11.9966C1.16053 10.645 0.292188 8.95852 0.448931 7.21387C0.629996 6.26221 1.15068 5.69014 1.92119 5.1516C2.21845 4.97103 2.54285 4.86738 2.87102 4.75586C3.53181 4.52835 3.94959 4.18182 4.26508 3.5534C4.37315 3.24661 4.4442 2.93296 4.50703 2.61383C4.68572 1.81451 5.17714 1.18697 5.83732 0.715381C6.77931 0.1376 7.90682 0.0888955 8.96926 0.319493C12.9162 1.4446 15.5401 5.43283 15.5451 9.47956Z" fill="#3EA1DF"></path><path d="M15.5451 9.47956C15.5234 10.8974 15.1248 12.2825 14.1536 13.3513C12.6539 14.7834 10.8754 15.6748 8.7736 15.6343C6.5996 15.5519 4.60032 14.6485 3.06942 13.0969C2.82474 12.8178 2.59568 12.5295 2.36951 12.2359C2.3081 12.1569 2.24779 12.0781 2.18446 11.9966C1.16053 10.645 0.292188 8.95852 0.448931 7.21387C0.629996 6.26221 1.15068 5.69014 1.92119 5.1516C2.21845 4.97103 2.54285 4.86738 2.87102 4.75586C3.53181 4.52835 3.94959 4.18182 4.26508 3.5534C4.37315 3.24661 4.4442 2.93296 4.50703 2.61383C4.68572 1.81451 5.17714 1.18697 5.83732 0.715381C6.77931 0.1376 7.90682 0.0888955 8.96926 0.319493C12.9162 1.4446 15.5401 5.43283 15.5451 9.47956ZM8.08339 1.2497C7.89114 1.23675 7.70102 1.22909 7.50871 1.23006C7.59716 1.45339 7.70482 1.6212 7.85828 1.80588C8.65435 2.78413 9.32309 3.82276 9.26656 5.14098C9.10854 6.0777 8.62012 6.75241 7.87113 7.31482C6.88702 7.96198 5.755 7.94884 4.63414 7.72206C3.77588 7.4981 2.98176 7.14904 2.19362 6.7478C2.08859 6.69676 1.98343 6.64682 1.87827 6.59687C1.54954 7.01083 1.4424 7.41689 1.4727 7.93989C1.55727 8.55436 1.74867 9.10757 1.99397 9.67533C2.02774 9.757 2.06152 9.83866 2.0966 9.92328C2.93302 11.7712 4.54734 13.3461 6.431 14.1096C6.56187 14.1545 6.69364 14.1966 6.82629 14.2361C6.89389 14.2568 6.96148 14.2775 7.03127 14.2985C8.71536 14.7697 10.3119 14.6187 11.8741 13.8262C13.1519 13.0804 13.9835 12.1033 14.3842 10.6572C14.8117 8.70803 14.1099 6.40793 13.0915 4.74111C11.9097 2.94185 10.3039 1.49893 8.08339 1.2497Z" fill="#000102"></path><path d="M12.225 3.60328C13.7237 5.39379 14.6741 7.79077 14.478 10.1522C14.246 11.5632 13.5853 12.6352 12.4392 13.4727C11.7326 13.9585 10.9148 14.2833 10.0828 14.4766C9.89091 14.2297 9.89091 14.2297 9.88444 14.0634C9.94291 13.8635 10.008 13.8021 10.1725 13.6762C10.2381 13.6242 10.2381 13.6242 10.3055 13.5708C10.4732 13.4771 10.6058 13.4324 10.7887 13.3823C11.1543 13.2744 11.4234 13.0919 11.7202 12.8573C11.7709 12.8168 11.8222 12.777 11.8748 12.7351C12.5638 12.1669 12.8591 11.4769 13.0183 10.6105C13.031 10.5492 13.0444 10.4873 13.0573 10.4238C13.3219 8.89039 12.5432 7.29762 11.8799 5.96665C11.3758 4.94754 11.3758 4.94754 11.5186 4.35041C11.6989 4.01423 11.9235 3.83069 12.225 3.60328Z" fill="#62B6EB"></path><path d="M8.32646 4.84536C8.29928 5.40907 8.12556 5.84411 7.72992 6.24968C7.12232 6.75961 6.56595 6.95842 5.77647 6.91466C5.59897 6.89521 5.42161 6.87466 5.24404 6.8513C5.16993 6.84257 5.09568 6.83494 5.01875 6.82641C4.26069 6.71863 3.42837 6.41213 2.78977 5.98673C3.02998 5.84357 3.25812 5.71673 3.52053 5.61869C4.26329 5.30173 4.95929 4.71318 5.27228 3.95799C5.34976 3.68192 5.41099 3.40659 5.46681 3.12557C5.57158 2.62729 5.76161 2.22215 6.09562 1.83281C6.2953 1.71521 6.2953 1.71521 6.45219 1.65465C7.39428 2.45009 8.25228 3.59209 8.32646 4.84536Z" fill="#0D6CA9"></path><path d="M10.9142 8.28574C11.0405 8.66478 11.0278 8.98853 10.8742 9.35646C10.703 9.65979 10.5122 9.88435 10.1938 10.0339C9.77181 10.1381 9.388 10.1335 8.97338 9.99238C8.65874 9.78249 8.40363 9.50653 8.28444 9.14175C8.21209 8.71877 8.27587 8.38304 8.45061 7.9977C8.66845 7.69966 8.89845 7.52681 9.24808 7.4085C10.0425 7.34647 10.507 7.61413 10.9142 8.28574Z" fill="#010304"></path><path d="M9.83768 8.42942C9.95542 8.62801 9.96979 8.70892 9.94038 8.94366C9.63208 9.12787 9.63208 9.12787 9.47412 9.10808C9.34533 8.9666 9.34533 8.9666 9.23424 8.79948C9.24331 8.72709 9.25238 8.65469 9.26172 8.58009C9.48123 8.44214 9.57661 8.39671 9.83768 8.42942Z" fill="#3A96D1"></path><style>@media (prefers-color-scheme: light) { :root { filter: none; } }
@media (prefers-color-scheme: dark) { :root { filter: none; } }
</style></svg>